<svg class="svg-icon" style="width: 1em; height: 1em;vertical-align: middle;fill: currentColor;overflow: hidden;" viewBox="0 0 1024 1024" version="1.1" xmlns="http://www.w3.org/2000/svg"><path d="M768 469.333333c-25.6 0-42.666667-17.066667-42.666667-42.666667 0-119.466667-93.866667-213.333333-213.333333-213.333333s-213.333333 93.866667-213.333333 213.333333c0 25.6-17.066667 42.666667-42.666667 42.666667s-42.666667-17.066667-42.666667-42.666667c0-166.4 132.266667-298.666667 298.666667-298.666667s298.666667 132.266667 298.666667 298.666667C810.666667 452.266667 793.6 469.333333 768 469.333333z"  /><path d="M896 853.333333c-93.866667 0-170.666667-110.933333-170.666667-256 0-25.6 17.066667-42.666667 42.666667-42.666667s42.666667 17.066667 42.666667 42.666667c0 98.133333 46.933333 170.666667 85.333333 170.666667 25.6 0 42.666667 17.066667 42.666667 42.666667S921.6 853.333333 896 853.333333z"  /><path d="M128 853.333333c-25.6 0-42.666667-17.066667-42.666667-42.666667s17.066667-42.666667 42.666667-42.666667c38.4 0 85.333333-72.533333 85.333333-170.666667 0-25.6 17.066667-42.666667 42.666667-42.666667s42.666667 17.066667 42.666667 42.666667C298.666667 742.4 221.866667 853.333333 128 853.333333z"  /><path d="M896 853.333333 128 853.333333c-25.6 0-42.666667-17.066667-42.666667-42.666667s17.066667-42.666667 42.666667-42.666667l768 0c25.6 0 42.666667 17.066667 42.666667 42.666667S921.6 853.333333 896 853.333333z"  /><path d="M256 640c-25.6 0-42.666667-17.066667-42.666667-42.666667l0-170.666667c0-25.6 17.066667-42.666667 42.666667-42.666667s42.666667 17.066667 42.666667 42.666667l0 170.666667C298.666667 622.933333 281.6 640 256 640z"  /><path d="M768 640c-25.6 0-42.666667-17.066667-42.666667-42.666667l0-170.666667c0-25.6 17.066667-42.666667 42.666667-42.666667s42.666667 17.066667 42.666667 42.666667l0 170.666667C810.666667 622.933333 793.6 640 768 640z"  /><path d="M512 1024c-93.866667 0-170.666667-76.8-170.666667-170.666667 0-21.333333 4.266667-38.4 8.533333-59.733333 8.533333-21.333333 34.133333-34.133333 55.466667-25.6 21.333333 8.533333 34.133333 34.133333 25.6 55.466667C426.666667 836.266667 426.666667 844.8 426.666667 853.333333c0 46.933333 38.4 85.333333 85.333333 85.333333s85.333333-38.4 85.333333-85.333333c0-8.533333 0-17.066667-4.266667-25.6-8.533333-21.333333 4.266667-46.933333 25.6-55.466667 21.333333-8.533333 46.933333 4.266667 55.466667 25.6 8.533333 17.066667 8.533333 38.4 8.533333 59.733333C682.666667 947.2 605.866667 1024 512 1024z"  /><path d="M512 213.333333c-25.6 0-42.666667-17.066667-42.666667-42.666667L469.333333 42.666667c0-25.6 17.066667-42.666667 42.666667-42.666667s42.666667 17.066667 42.666667 42.666667l0 128C554.666667 196.266667 537.6 213.333333 512 213.333333z"  /></svg>